<?xml version="1.0" encoding="UTF-8" standalone="no"?>
<!-- Created with Inkscape (http://www.inkscape.org/) -->

<svg
   xmlns:dc="http://purl.org/dc/elements/1.1/"
   xmlns:cc="http://creativecommons.org/ns#"
   xmlns:rdf="http://www.w3.org/1999/02/22-rdf-syntax-ns#"
   xmlns:svg="http://www.w3.org/2000/svg"
   xmlns="http://www.w3.org/2000/svg"
   xmlns:sodipodi="http://sodipodi.sourceforge.net/DTD/sodipodi-0.dtd"
   xmlns:inkscape="http://www.inkscape.org/namespaces/inkscape"
   width="714.05054mm"
   height="105.55173mm"
   viewBox="0 0 2530.1003 374.00221"
   id="svg2"
   version="1.1"
   inkscape:version="0.91 r13725"
   sodipodi:docname="contact.svg">
  <defs
     id="defs4">
    <inkscape:path-effect
       effect="spiro"
       id="path-effect4921"
       is_visible="true" />
    <inkscape:path-effect
       effect="spiro"
       id="path-effect4917"
       is_visible="true" />
    <inkscape:path-effect
       effect="spiro"
       id="path-effect4913"
       is_visible="true" />
    <inkscape:path-effect
       effect="spiro"
       id="path-effect4909"
       is_visible="true" />
    <inkscape:path-effect
       effect="spiro"
       id="path-effect4905"
       is_visible="true" />
    <inkscape:path-effect
       effect="spiro"
       id="path-effect4901"
       is_visible="true" />
    <inkscape:path-effect
       effect="spiro"
       id="path-effect4897"
       is_visible="true" />
    <inkscape:path-effect
       effect="spiro"
       id="path-effect4893"
       is_visible="true" />
    <inkscape:path-effect
       effect="spiro"
       id="path-effect4889"
       is_visible="true" />
    <inkscape:path-effect
       effect="spiro"
       id="path-effect4885"
       is_visible="true" />
    <inkscape:path-effect
       effect="spiro"
       id="path-effect4249"
       is_visible="true" />
    <inkscape:path-effect
       effect="spiro"
       id="path-effect4245"
       is_visible="true" />
    <inkscape:path-effect
       effect="spiro"
       id="path-effect4241"
       is_visible="true" />
    <inkscape:path-effect
       effect="spiro"
       id="path-effect4237"
       is_visible="true" />
    <inkscape:path-effect
       effect="spiro"
       id="path-effect4233"
       is_visible="true" />
    <inkscape:path-effect
       effect="spiro"
       id="path-effect4229"
       is_visible="true" />
    <inkscape:path-effect
       effect="spiro"
       id="path-effect4225"
       is_visible="true" />
    <inkscape:path-effect
       effect="spiro"
       id="path-effect4221"
       is_visible="true" />
    <inkscape:path-effect
       effect="spiro"
       id="path-effect4217"
       is_visible="true" />
    <inkscape:path-effect
       effect="spiro"
       id="path-effect4213"
       is_visible="true" />
    <inkscape:path-effect
       effect="spiro"
       id="path-effect4209"
       is_visible="true" />
    <inkscape:path-effect
       effect="spiro"
       id="path-effect4205"
       is_visible="true" />
  </defs>
  <sodipodi:namedview
     id="base"
     pagecolor="#ffffff"
     bordercolor="#666666"
     borderopacity="1.0"
     inkscape:pageopacity="0.0"
     inkscape:pageshadow="2"
     inkscape:zoom="0.52548447"
     inkscape:cx="63.422788"
     inkscape:cy="149.0541"
     inkscape:document-units="px"
     inkscape:current-layer="layer1"
     showgrid="true"
     inkscape:window-width="1657"
     inkscape:window-height="810"
     inkscape:window-x="134"
     inkscape:window-y="129"
     inkscape:window-maximized="0"
     fit-margin-top="0"
     fit-margin-left="0"
     fit-margin-right="0"
     fit-margin-bottom="0" />
  <metadata
     id="metadata7">
    <rdf:RDF>
      <cc:Work
         rdf:about="">
        <dc:format>image/svg+xml</dc:format>
        <dc:type
           rdf:resource="http://purl.org/dc/dcmitype/StillImage" />
        <dc:title></dc:title>
      </cc:Work>
    </rdf:RDF>
  </metadata>
  <g
     inkscape:label="Layer 1"
     inkscape:groupmode="layer"
     id="layer1"
     transform="translate(695.10597,-786.39718)">
    <path
       style="fill:none;fill-rule:evenodd;stroke:#000000;stroke-width:31;stroke-linecap:round;stroke-linejoin:round;stroke-miterlimit:4;stroke-dasharray:none;stroke-opacity:1"
       d="m -348.25006,890.6067 c 7.30829,-6.20416 12.16433,-15.22253 13.32104,-24.73908 0.90648,-7.45787 -0.4287,-15.17371 -3.78851,-21.89332 -3.3598,-6.71961 -8.73137,-12.41726 -15.24155,-16.16679 -14.92086,-7.54604 -31.04537,-12.70589 -47.57515,-15.22405 -22.1409,-3.37296 -44.96878,-1.97861 -66.6052,3.806 -25.33794,6.77423 -48.78523,19.41438 -70.41122,34.25411 -11.93428,8.18929 -23.39089,17.07744 -34.2541,26.64208 -20.23612,17.81714 -38.35611,37.92979 -55.18716,58.9932 -18.9216,23.67966 -36.52621,49.12497 -45.67214,78.02315 -6.42145,20.2897 -8.41995,42.54 -1.90301,62.7992 6.34597,19.7277 20.55688,36.4805 38.06012,47.5752 13.81717,8.7582 29.5851,14.1559 45.67214,17.127 25.68248,4.7432 52.13262,3.4299 78.02323,0 20.02155,-2.6524 39.95479,-6.5804 58.99318,-13.3211 16.08576,-5.6953 31.46441,-13.3846 45.67214,-22.836"
       id="path4883"
       inkscape:path-effect="#path-effect4885"
       inkscape:original-d="m -348.25006,890.6067 c 0,0 6.85069,-10.30279 13.32104,-24.73908 52.80426,-104.38638 -2.62722,-24.61331 -19.03006,-38.06011 -12.28826,-13.60296 -25.95949,-17.22092 -47.57515,-15.22405 -21.61566,1.99687 -43.83878,-10.58763 -66.6052,3.806 -22.76642,14.39363 -48.55849,16.09921 -70.41122,34.25411 -21.85273,18.1549 -15.20086,7.91906 -34.2541,26.64208 -19.05324,18.72302 -38.12908,36.12224 -55.18716,58.9932 -17.05808,22.871 -38.61564,53.4781 -45.67214,78.02315 -7.0565,24.5451 -8.43467,43.2351 -1.90301,62.7992 6.53166,19.5641 23.25835,36.8416 38.06012,47.5752 14.80177,10.7336 24.87774,13.3563 45.67214,17.127 20.7944,3.7707 55.08178,2.558 78.02323,0 22.94145,-2.558 41.48497,-7.0713 58.99318,-13.3211 17.50821,-6.2498 45.67214,-22.836 45.67214,-22.836"
       inkscape:connector-curvature="0"
       sodipodi:nodetypes="ccczzzzzzzzzzzc" />
    <path
       style="fill:none;fill-rule:evenodd;stroke:#000000;stroke-width:31;stroke-linecap:round;stroke-linejoin:round;stroke-miterlimit:4;stroke-dasharray:none;stroke-opacity:1"
       d="m -108.47134,863.9646 c -5.82794,-8.43229 -14.79501,-14.64026 -24.73907,-17.12705 -7.45165,-1.86349 -15.3398,-1.67497 -22.83607,0 -12.8176,2.86397 -24.38347,9.95066 -34.2728,18.59326 -9.88933,8.64259 -18.27011,18.84698 -26.62338,28.98188 -19.06756,23.13439 -38.35059,46.31883 -53.28416,72.31422 -11.35745,19.77033 -20.26392,41.93519 -19.03007,64.70219 0.56934,10.5055 3.30601,20.8488 7.61203,30.4481 5.79977,12.9293 14.68089,24.7528 26.64208,32.3511 15.56237,9.886 34.85241,11.8547 53.28416,11.418 29.87599,-0.7078 60.11318,-7.2894 85.63526,-22.8361 20.403893,-12.429 37.050063,-30.0465 53.284175,-47.5751 13.145335,-14.1935 26.573683,-29.1122 32.35109,-47.57509 4.606893,-14.72225 3.929304,-30.7548 0,-45.6722 -5.136618,-19.5009 -15.809344,-37.51111 -30.44809,-51.38112"
       id="path4887"
       inkscape:path-effect="#path-effect4889"
       inkscape:original-d="m -108.47134,863.9646 c 0,0 -16.31943,-14.49695 -24.73907,-17.12705 -8.41964,-2.6301 -8.01304,-5.82086 -22.83607,0 -14.82303,5.82086 -42.85661,27.36545 -60.89618,47.57514 -18.03957,20.20969 -40.23899,49.43112 -53.28416,72.31422 -13.04517,22.8831 -17.73449,48.15249 -19.03007,64.70219 -1.29558,16.5497 2.11291,19.5401 7.61203,30.4481 5.49912,10.908 12.91495,24.0012 26.64208,32.3511 13.72713,8.3499 -11.01977,-1.772 53.28416,11.418 64.30394,13.19 75.5336,-5.0202 85.63526,-22.8361 10.10167,-17.8158 39.368515,-32.4878 53.284175,-47.5751 13.91566,-15.0873 26.93504,-31.3269 32.35109,-47.57509 5.41605,-16.2482 4.64275,-28.7306 0,-45.6722 -4.64275,-16.9416 -30.44809,-51.38112 -30.44809,-51.38112"
       inkscape:connector-curvature="0"
       sodipodi:nodetypes="czzzzzzzzzzzzc" />
    <path
       style="fill:none;fill-rule:evenodd;stroke:#000000;stroke-width:31;stroke-linecap:round;stroke-linejoin:round;stroke-miterlimit:4;stroke-dasharray:none;stroke-opacity:1"
       d="m 30.448092,1113.2584 c 2.012381,-12.9395 5.201459,-25.6959 9.51503,-38.0601 5.990346,-17.1705 14.118919,-33.5182 22.836069,-49.4782 10.222322,-18.7158 21.278835,-36.96134 32.351098,-55.18717 14.072551,-23.16454 28.190211,-46.32873 43.769131,-68.50821 12.84882,-18.29268 26.70259,-35.93306 38.06012,-55.18717 1.68584,-2.85796 3.3739,-5.81926 5.95365,-7.90609 1.28987,-1.04342 2.79622,-1.84648 4.42107,-2.18166 1.62486,-0.33517 3.37158,-0.18145 4.84932,0.57272 1.24851,0.63718 2.2676,1.68045 2.97732,2.88919 0.70971,1.20875 1.12013,2.57825 1.31,3.96703 0.37976,2.77756 -0.10302,5.59007 -0.48131,8.36783 -1.80151,13.22849 -1.2381,26.67006 0,39.96312 2.03325,21.8303 5.87847,43.48878 11.41804,64.7022 4.20881,16.11737 9.39213,31.97161 15.22404,47.57521 5.91438,15.8243 12.7833,31.834 24.73908,43.7691 9.74582,9.729 22.23629,16.1126 34.2541,22.8361 5.01742,2.8071 10.01814,5.7133 15.41951,7.6829 5.40138,1.9696 11.29595,2.9695 16.93159,1.8321 7.34349,-1.4821 13.48674,-6.3786 19.03006,-11.418 26.26884,-23.8806 46.09728,-54.4622 58.99318,-87.53834 6.55904,-16.823 11.36505,-34.26876 17.12705,-51.38115 3.44678,-10.23648 7.25482,-20.42523 9.02671,-31.0801 1.7719,-10.65487 1.37468,-21.9904 -3.31769,-31.71909 -5.08027,-10.53293 -15.20624,-18.48905 -26.64208,-20.93307"
       id="path4891"
       inkscape:path-effect="#path-effect4893"
       inkscape:original-d="m 30.448092,1113.2584 c 0,0 4.324918,-23.3266 9.51503,-38.0601 5.190111,-14.7335 13.695718,-31.9773 22.836069,-49.4782 9.140351,-17.5009 20.019522,-35.17555 32.351098,-55.18717 12.331581,-20.01165 30.121641,-47.89681 43.769131,-68.50821 13.64749,-20.6114 27.35518,-44.86921 38.06012,-55.18717 10.70494,-10.31796 10.02402,-11.61378 15.22404,-9.51503 5.20002,2.09875 2.67264,6.0176 3.80601,15.22405 1.13337,9.20645 5.82756,70.28325 0,39.96312 -5.82756,-30.32012 4.63366,31.93891 11.41804,64.7022 6.78439,32.7633 5.87476,76.13911 15.22404,47.57521 9.34928,-28.56403 321.60319,-127.07209 24.73908,43.7691 -296.864101,170.8411 22.94559,17.5533 34.2541,22.8361 11.30851,5.2828 23.10737,10.697 32.3511,9.515 9.24373,-1.182 3.58353,3.2369 19.03006,-11.418 15.44653,-14.6549 47.23778,-63.6542 58.99318,-87.53834 11.7554,-23.88408 13.12702,-32.25859 17.12705,-51.38115 4.00003,-19.12256 12.10599,-47.96282 5.70902,-62.79919 -6.39697,-14.83637 -26.64208,-20.93307 -26.64208,-20.93307"
       inkscape:connector-curvature="0"
       sodipodi:nodetypes="czzzzzzzzzzzzzzzzzc" />
    <path
       style="fill:none;fill-rule:evenodd;stroke:#000000;stroke-width:31;stroke-linecap:round;stroke-linejoin:round;stroke-miterlimit:4;stroke-dasharray:none;stroke-opacity:1"
       d="m 506.19954,854.44958 c 18.39809,-1.23399 36.79386,-2.50266 55.18717,-3.80601 35.52422,-2.51724 71.03928,-5.16383 106.56832,-7.61202 40.58072,-2.79628 81.17928,-5.33369 121.79237,-7.61203 l 28.54509,-1.903"
       id="path4895"
       inkscape:path-effect="#path-effect4897"
       inkscape:original-d="m 506.19954,854.44958 c 0,0 28.22716,-1.9135 55.18717,-3.80601 26.96001,-1.89251 68.50858,-5.06343 106.56832,-7.61202 38.05974,-2.54859 97.42392,-4.98144 121.79237,-7.61203 15.14022,-3.57066 36.67358,13.27218 28.54509,-1.903"
       inkscape:connector-curvature="0"
       sodipodi:nodetypes="czzcc" />
    <path
       style="fill:none;fill-rule:evenodd;stroke:#000000;stroke-width:31;stroke-linecap:round;stroke-linejoin:round;stroke-miterlimit:4;stroke-dasharray:none;stroke-opacity:1"
       d="m 639.40995,858.25559 c 1.91198,12.59051 1.91198,25.46961 0,38.06012 -2.5971,17.10211 -8.65883,33.47425 -15.22405,49.47815 -10.46423,25.50843 -22.30281,50.44511 -32.3511,76.12024 -6.58272,16.82 -12.39304,33.9503 -17.12705,51.3811 -3.9149,14.4148 -7.09211,29.03 -9.51503,43.7692"
       id="path4899"
       inkscape:path-effect="#path-effect4901"
       inkscape:original-d="m 639.40995,858.25559 c 0,0 2.22616,23.25531 0,38.06012 -2.22616,14.80481 -7.53485,28.42557 -15.22405,49.47815 -7.6892,21.05258 -24.27649,54.78544 -32.3511,76.12024 -8.07461,21.3348 -12.76142,35.4774 -17.12705,51.3811 -4.36563,15.9037 -9.51503,43.7692 -9.51503,43.7692"
       inkscape:connector-curvature="0"
       sodipodi:nodetypes="czzzzc" />
    <path
       style="fill:none;fill-rule:evenodd;stroke:#000000;stroke-width:31;stroke-linecap:round;stroke-linejoin:round;stroke-miterlimit:4;stroke-dasharray:none;stroke-opacity:1"
       d="m 759.29931,1088.5193 c 5.84672,-13.8985 11.55611,-27.8548 17.12705,-41.8661 7.98029,-20.071 15.72485,-40.356 26.64209,-58.99321 11.68752,-19.95216 26.79623,-37.64907 41.86612,-55.18718 14.04983,-16.35098 28.16823,-32.69684 43.76914,-47.57514 17.65312,-16.83544 37.1007,-31.69052 57.09017,-45.67214 17.04517,-11.92224 34.57128,-23.26781 53.28416,-32.35109 4.22376,-2.05023 8.57416,-4.00468 13.21646,-4.70641 2.3212,-0.35086 4.7022,-0.38044 7.0093,0.0531 2.3072,0.43356 4.54,1.3394 6.4163,2.75028 2.0807,1.56462 3.6747,3.70866 4.8699,6.02144 1.1952,2.31278 2.0114,4.80089 2.7421,7.2996 6.1039,20.87313 6.5057,42.96949 5.7091,64.7022 -1.4588,39.7987 -6.8058,79.52159 -17.1271,117.98633 -8.6565,32.2607 -20.8023,63.5839 -36.1571,93.2473"
       id="path4903"
       inkscape:path-effect="#path-effect4905"
       inkscape:original-d="m 759.29931,1088.5193 c 0,0 9.88457,-25.0305 17.12705,-41.8661 7.24248,-16.8356 14.80168,-40.6911 26.64209,-58.99321 11.84041,-18.30213 27.58115,-38.05816 41.86612,-55.18718 14.28497,-17.12902 27.23981,-30.90018 43.76914,-47.57514 16.52933,-16.67496 38.58955,-32.73626 57.09017,-45.67214 18.50062,-12.93588 39.14371,-27.84518 53.28416,-32.35109 14.14046,-4.50591 20.45856,-5.20257 26.64206,-1.90301 6.1835,3.29956 3.6114,0.5503 7.612,13.32104 4.0006,12.77074 6.5707,34.01821 5.7091,64.7022 -0.8616,30.68399 -7.8385,82.64752 -17.1271,117.98633 -9.2886,35.3388 -36.1571,93.2473 -36.1571,93.2473"
       inkscape:connector-curvature="0"
       sodipodi:nodetypes="czzzzzzzzzzc" />
    <path
       style="fill:none;fill-rule:evenodd;stroke:#000000;stroke-width:31;stroke-linecap:round;stroke-linejoin:round;stroke-miterlimit:4;stroke-dasharray:none;stroke-opacity:1"
       d="m 827.80752,962.92091 c 15.84407,1.43987 31.70368,2.70864 47.57515,3.80601 27.87616,1.92739 55.79366,3.32615 83.73225,3.80601 14.58829,0.25056 29.18089,0.25056 43.76918,0"
       id="path4907"
       inkscape:path-effect="#path-effect4909"
       inkscape:original-d="m 827.80752,962.92091 c 0,0 25.69382,2.43386 47.57515,3.80601 21.88133,1.37215 62.47309,3.3231 83.73225,3.80601 21.25916,0.48291 43.76918,0 43.76918,0"
       inkscape:connector-curvature="0"
       sodipodi:nodetypes="czzc" />
    <path
       style="fill:none;fill-rule:evenodd;stroke:#000000;stroke-width:31;stroke-linecap:round;stroke-linejoin:round;stroke-miterlimit:4;stroke-dasharray:none;stroke-opacity:1"
       d="m 1375.8732,863.96461 c -3.8346,-7.21488 -9.0269,-13.70522 -15.2241,-19.03006 -5.6378,-4.84416 -12.1027,-8.72314 -19.03,-11.41804 -13.823,-6.00862 -29.2243,-8.18677 -44.2207,-6.67423 -14.9964,1.51254 -29.3231,6.78547 -43.3176,12.38325 l -19.0301,7.61203 c -13.98,5.59199 -27.8737,12.08311 -39.0176,22.2085 -11.1439,10.12538 -19.295,23.15071 -25.6845,36.78467 -9.2584,19.75561 -15.4887,41.04335 -17.1271,62.7992 -1.4533,19.29759 0.7636,38.99027 7.6121,57.09017 4.9074,12.9699 12.3147,25.2207 22.836,34.2541 14.6726,12.5977 34.1666,18.0169 53.2842,20.9331 18.2415,2.7826 36.814,3.6128 55.1871,1.903 35.8676,-3.3379 70.556,-16.2704 106.5684,-17.1271 2.5369,-0.06 5.0751,-0.06 7.612,0"
       id="path4911"
       inkscape:path-effect="#path-effect4913"
       inkscape:original-d="m 1375.8732,863.96461 c 0,0 -8.6302,-11.95283 -15.2241,-19.03006 -6.5939,-7.07723 -9.0115,-16.85572 -19.03,-11.41804 0,0 -54.9417,-7.32955 -87.5383,5.70902 l -19.0301,7.61203 c -37.1043,14.84167 -51.1425,41.24022 -64.7021,58.99317 -13.5596,17.75295 -12.3323,46.26723 -17.1271,62.7992 -4.7948,16.53197 5.4918,42.53537 7.6121,57.09017 2.1203,14.5548 10.8719,21.8066 22.836,34.2541 11.9641,12.4475 34.9297,17.1283 53.2842,20.9331 18.3545,3.8048 28.0475,3.5998 55.1871,1.903 27.1396,-1.6968 87.3715,-15.5943 106.5684,-17.1271 19.1969,-1.5328 7.612,0 7.612,0"
       inkscape:connector-curvature="0"
       sodipodi:nodetypes="czssszzzzzzzc" />
    <path
       style="fill:none;fill-rule:evenodd;stroke:#000000;stroke-width:31;stroke-linecap:round;stroke-linejoin:round;stroke-miterlimit:4;stroke-dasharray:none;stroke-opacity:1"
       d="m 1505.2776,841.12854 c 16.4204,-3.53316 32.9184,-6.70585 49.4781,-9.51503 33.4402,-5.67278 67.1183,-9.86103 100.8593,-13.32104 36.6955,-3.76299 73.4985,-6.66764 110.3744,-7.61202 17.7575,-0.45476 35.5266,-0.45476 53.2841,0 l 0,0"
       id="path4915"
       inkscape:path-effect="#path-effect4917"
       inkscape:original-d="m 1505.2776,841.12854 c 0,0 24.4513,-5.45947 49.4781,-9.51503 25.0268,-4.05556 65.6411,-9.78438 100.8593,-13.32104 35.2182,-3.53666 83.0705,-6.67162 110.3744,-7.61202 27.3039,-0.9404 -1765.9894,-810.68045 53.2841,0 -1819.2735,-810.68045 0,0 0,0"
       inkscape:connector-curvature="0"
       sodipodi:nodetypes="czzzzc" />
    <path
       style="fill:none;fill-rule:evenodd;stroke:#000000;stroke-width:31;stroke-linecap:round;stroke-linejoin:round;stroke-miterlimit:4;stroke-dasharray:none;stroke-opacity:1"
       d="m 1663.2271,833.51652 c 1.023,6.92763 1.023,14.00543 0,20.93306 -1.6786,11.36746 -6.0714,22.18008 -11.4181,32.3511 -7.9494,15.12211 -18.0282,29.01546 -26.6421,43.76913 -12.5906,21.56479 -21.9876,44.8544 -34.2541,66.6052 -8.5146,15.09809 -18.4436,29.52229 -24.739,45.67219 -4.7228,12.1157 -7.3117,25.0599 -7.6121,38.0601"
       id="path4919"
       inkscape:path-effect="#path-effect4921"
       inkscape:original-d="m 1663.2271,833.51652 c 0,0 1.5544,11.85856 0,20.93306 -1.5544,9.0745 -5.3059,19.46984 -11.4181,32.3511 -6.1122,12.88126 -16.3627,25.43078 -26.6421,43.76913 -10.2794,18.33835 -24.3851,47.91035 -34.2541,66.6052 -9.869,18.69489 -19.5963,31.44729 -24.739,45.67219 -5.1427,14.2249 -7.6121,38.0601 -7.6121,38.0601"
       inkscape:connector-curvature="0"
       sodipodi:nodetypes="czzzzzc" />
  </g>
</svg>
