<?xml version="1.0" encoding="UTF-8" standalone="no"?>
<!-- Created with Inkscape (http://www.inkscape.org/) -->

<svg
   xmlns:dc="http://purl.org/dc/elements/1.1/"
   xmlns:cc="http://creativecommons.org/ns#"
   xmlns:rdf="http://www.w3.org/1999/02/22-rdf-syntax-ns#"
   xmlns:svg="http://www.w3.org/2000/svg"
   xmlns="http://www.w3.org/2000/svg"
   xmlns:sodipodi="http://sodipodi.sourceforge.net/DTD/sodipodi-0.dtd"
   xmlns:inkscape="http://www.inkscape.org/namespaces/inkscape"
   width="743.71832mm"
   height="118.8055mm"
   viewBox="0 0 2635.2224 420.96438"
   id="svg2"
   version="1.1"
   inkscape:version="0.91 r13725"
   sodipodi:docname="gallery.svg">
  <defs
     id="defs4">
    <inkscape:path-effect
       effect="spiro"
       id="path-effect4249"
       is_visible="true" />
    <inkscape:path-effect
       effect="spiro"
       id="path-effect4245"
       is_visible="true" />
    <inkscape:path-effect
       effect="spiro"
       id="path-effect4241"
       is_visible="true" />
    <inkscape:path-effect
       effect="spiro"
       id="path-effect4237"
       is_visible="true" />
    <inkscape:path-effect
       effect="spiro"
       id="path-effect4233"
       is_visible="true" />
    <inkscape:path-effect
       effect="spiro"
       id="path-effect4229"
       is_visible="true" />
    <inkscape:path-effect
       effect="spiro"
       id="path-effect4225"
       is_visible="true" />
    <inkscape:path-effect
       effect="spiro"
       id="path-effect4221"
       is_visible="true" />
    <inkscape:path-effect
       effect="spiro"
       id="path-effect4217"
       is_visible="true" />
    <inkscape:path-effect
       effect="spiro"
       id="path-effect4213"
       is_visible="true" />
    <inkscape:path-effect
       effect="spiro"
       id="path-effect4209"
       is_visible="true" />
    <inkscape:path-effect
       effect="spiro"
       id="path-effect4205"
       is_visible="true" />
  </defs>
  <sodipodi:namedview
     id="base"
     pagecolor="#ffffff"
     bordercolor="#666666"
     borderopacity="1.0"
     inkscape:pageopacity="0.0"
     inkscape:pageshadow="2"
     inkscape:zoom="0.52548447"
     inkscape:cx="633.2947"
     inkscape:cy="84.33115"
     inkscape:document-units="px"
     inkscape:current-layer="layer1"
     showgrid="true"
     inkscape:window-width="1657"
     inkscape:window-height="810"
     inkscape:window-x="216"
     inkscape:window-y="164"
     inkscape:window-maximized="0"
     fit-margin-top="0"
     fit-margin-left="0"
     fit-margin-right="0"
     fit-margin-bottom="0">
    <inkscape:grid
       type="xygrid"
       id="grid4862"
       originx="766.23791"
       originy="-898.5714" />
  </sodipodi:namedview>
  <metadata
     id="metadata7">
    <rdf:RDF>
      <cc:Work
         rdf:about="">
        <dc:format>image/svg+xml</dc:format>
        <dc:type
           rdf:resource="http://purl.org/dc/dcmitype/StillImage" />
        <dc:title></dc:title>
      </cc:Work>
    </rdf:RDF>
  </metadata>
  <g
     inkscape:label="Layer 1"
     inkscape:groupmode="layer"
     id="layer1"
     transform="translate(766.23792,267.17351)">
    <path
       style="fill:none;fill-rule:evenodd;stroke:#000000;stroke-width:31;stroke-linecap:round;stroke-linejoin:round;stroke-miterlimit:4;stroke-dasharray:none;stroke-opacity:1"
       d="m -425.71429,-207.6378 c 0,0 -31.66793,-38.39003 -54.28571,-42.85714 -27.20816,-5.37373 -55.28291,10.27833 -80,22.85714 -34.4675,17.5409 -64.97114,43.2205 -91.42857,71.42858 -32.34788,34.48829 -61.79667,73.502661 -80,117.142853 -11.57684,27.754013 -24.2487,59.351308 -17.14286,88.571429 5.44774,22.401817 24.16925,40.784531 42.85714,54.285718 18.07182,13.0561 40.65638,20.81312 62.85715,22.85714 28.84354,2.65562 58.16856,-5.3283 85.71428,-14.28572 28.35282,-9.21988 58.54522,-19.297786 80,-39.999995 8.58738,-8.286164 15.57341,-19.598929 17.14286,-31.428572 3.22032,-24.272948 -17.14286,-71.428571 -17.14286,-71.428571"
       id="path4201"
       inkscape:connector-curvature="0"
       sodipodi:nodetypes="cssssssssssc" />
    <path
       style="fill:none;fill-rule:evenodd;stroke:#000000;stroke-width:31;stroke-linecap:round;stroke-linejoin:round;stroke-miterlimit:4;stroke-dasharray:none;stroke-opacity:1"
       d="m -560,-36.209224 c 25.68315,1.631411 51.4094,2.584235 77.14286,2.857143 18.26927,0.193749 36.89994,0.09837 54.28571,5.714286 22.46277,7.255874 41.58917,24.2571201 51.42857,45.714285"
       id="path4203"
       inkscape:path-effect="#path-effect4205"
       inkscape:original-d="m -560,-36.209224 c 0,0 51.47568,1.033032 77.14286,2.857143 18.14944,1.289841 37.64055,-1.634487 54.28571,5.714286 20.98242,9.263655 51.42857,45.714285 51.42857,45.714285"
       inkscape:connector-curvature="0"
       sodipodi:nodetypes="cssc" />
    <path
       style="fill:none;fill-rule:evenodd;stroke:#000000;stroke-width:31;stroke-linecap:round;stroke-linejoin:round;stroke-miterlimit:4;stroke-dasharray:none;stroke-opacity:1"
       d="m -305.71429,138.07649 c 6.28808,-25.47529 14.90712,-50.374727 25.71429,-74.285714 16.58629,-36.697346 38.27462,-70.958865 62.85714,-102.857143 19.77786,-25.66375 41.50021,-49.900222 65.71429,-71.428573 16.24034,-14.43903 33.56333,-27.62796 51.42857,-40 18.509899,-12.81848 37.677424,-24.80568 58.096994,-34.29098 15.614216,-7.25312 31.882188,-13.00774 47.6172917,-19.99473 5.5203633,-2.45125 11.0504353,-5.07826 16.9955973,-6.14507 2.972581,-0.5334 6.034858,-0.66536 9.014441,-0.17257 2.979583,0.4928 5.876751,1.62585 8.275676,3.46049 3.722188,2.84665 6.044902,7.22286 7.222323,11.75847 1.17742,4.53561 1.308932,9.27005 1.349106,13.95582 0.155434,18.12938 -0.958202,36.25538 -2.857143,54.28571 C 37.428454,-48.964336 14.01986,28.088952 -22.857143,98.07649"
       id="path4207"
       inkscape:path-effect="#path-effect4209"
       inkscape:original-d="m -305.71429,138.07649 c 0,0 14.53194,-50.588109 25.71429,-74.285714 17.14727,-36.338459 38.6634,-70.7763803 62.85714,-102.857143 19.48031,-25.830785 41.91104,-49.516993 65.71429,-71.428573 15.97846,-14.70864 33.81032,-27.30148 51.42857,-40 19.499835,-14.05469 36.405527,-23.93443 58.096994,-34.29098 14.40696,-6.87857 31.9489332,-16.93241 47.6172917,-19.99473 C 16.969515,-206.98044 30.425887,-213.95093 40,-207.6378 c 7.542857,4.97373 7.359122,16.76091 8.571429,25.71429 2.43134,17.95643 0.275618,36.43829 -2.857143,54.28571 -13.594702,77.449366 -68.571429,225.71429 -68.571429,225.71429"
       inkscape:connector-curvature="0"
       sodipodi:nodetypes="csssssssssc" />
    <path
       style="fill:none;fill-rule:evenodd;stroke:#000000;stroke-width:31;stroke-linecap:round;stroke-linejoin:round;stroke-miterlimit:4;stroke-dasharray:none;stroke-opacity:1"
       d="m -234.28571,12.362205 c 16.01935,-4.4933123 32.22921,-8.3073971 48.57142,-11.4285717 17.99612,-3.437052 36.14113,-6.0322551 54.28572,-8.5714286 15.20963,-2.1284525 30.42941,-4.2190397 45.714284,-5.7142857 17.092565,-1.672083 34.256367,-2.598263 51.428572,-2.857143 6.666162,-0.100496 13.333838,-0.100496 20,0"
       id="path4211"
       inkscape:path-effect="#path-effect4213"
       inkscape:original-d="m -234.28571,12.362205 c 0,0 32.25032,-8.2245552 48.57142,-11.4285717 17.9763,-3.5289525 36.14677,-6.0064018 54.28572,-8.5714286 15.2054,-2.150194 30.41965,-4.3351697 45.714284,-5.7142857 17.099916,-1.541899 34.26589,-2.380769 51.428572,-2.857143 6.6641,-0.184971 20,0 20,0"
       inkscape:connector-curvature="0"
       sodipodi:nodetypes="cssssc" />
    <path
       style="fill:none;fill-rule:evenodd;stroke:#000000;stroke-width:31;stroke-linecap:round;stroke-linejoin:round;stroke-miterlimit:4;stroke-dasharray:none;stroke-opacity:1"
       d="m 242.85714,-181.92351 c -4.04066,24.4427 -10.76035,48.44158 -20,71.42857 -12.09327,30.086399 -28.41955,58.285637 -45.71428,85.714288 C 157.08742,7.0263611 135.55643,38.129116 120,72.362205 c -1.85058,4.072347 -3.6283,8.229974 -4.41799,12.632819 -0.7897,4.402845 -0.52169,9.122715 1.56085,13.081466 1.25542,2.38646 3.13182,4.42117 5.31433,6.0048 2.18251,1.58363 4.66631,2.72595 7.24408,3.51736 5.15555,1.58282 10.62169,1.77042 16.01302,1.90641 63.02967,1.58984 126.19509,-2.23836 188.57142,-11.42857"
       id="path4215"
       inkscape:path-effect="#path-effect4217"
       inkscape:original-d="m 242.85714,-181.92351 c 0,0 -10.79486,48.48073 -20,71.42857 -12.05534,30.0532 -29.88288,57.467289 -45.71428,85.714288 C 158.77557,7.9909901 131.86002,36.715635 120,72.362205 c -2.72262,8.183138 -7.28978,18.316441 -2.85714,25.714285 5.27211,8.79888 18.44497,9.7945 28.57143,11.42857 62.16827,10.03186 188.57142,-11.42857 188.57142,-11.42857"
       inkscape:connector-curvature="0"
       sodipodi:nodetypes="csssssc" />
    <path
       style="fill:none;fill-rule:evenodd;stroke:#000000;stroke-width:31;stroke-linecap:round;stroke-linejoin:round;stroke-miterlimit:4;stroke-dasharray:none;stroke-opacity:1"
       d="m 554.28571,-181.92351 c -11.05404,17.75237 -21.53744,35.86007 -31.42857,54.28571 -11.81989,22.01863 -22.78939,44.48187 -34.29099,66.668427 -8.8891,17.147058 -18.09713,34.131 -26.66842,51.4391086 C 452.95889,8.5200401 444.66867,27.054044 440,46.647919 c -1.34665,5.651724 -2.39228,11.442655 -2.07028,17.243669 0.322,5.801013 2.11116,11.661516 5.88683,16.077372 4.19862,4.910523 10.49363,7.633545 16.85106,8.784534 6.35742,1.150988 12.87298,0.884455 19.33239,0.751568 13.96333,-0.287263 27.93159,0.06894 41.89773,0.0053 C 568.25124,89.299134 614.57415,84.448909 660,75.219379 c 12.45337,-2.53025 24.84006,-5.388716 37.14286,-8.571429"
       id="path4219"
       inkscape:path-effect="#path-effect4221"
       inkscape:original-d="m 554.28571,-181.92351 c 0,0 -20.92273,36.20767 -31.42857,54.28571 -13.29585,22.87897 -45.341,90.712633 -34.29099,66.668427 32.38798,-70.474437 -18.25591,30.016342 -26.66842,51.4391086 C 456.39359,4.486222 438.51617,31.662739 440,46.647919 c 0.75661,7.640972 -1.17447,27.486089 3.81655,33.321041 7.92783,9.268353 25.04675,4.563496 36.18345,9.536102 10.5795,4.723816 30.31271,-0.161255 41.89773,0.0053 49.02175,0.704641 89.88166,-5.436535 138.10227,-14.290983 12.4974,-2.29482 37.14286,-8.571429 37.14286,-8.571429"
       inkscape:connector-curvature="0"
       sodipodi:nodetypes="cssssssssc" />
    <path
       style="fill:none;fill-rule:evenodd;stroke:#000000;stroke-width:31;stroke-linecap:round;stroke-linejoin:round;stroke-miterlimit:4;stroke-dasharray:none;stroke-opacity:1"
       d="m 1077.1429,-213.35208 -154.28576,20 -60,17.14286 -5.71428,2.85714"
       id="path4223"
       inkscape:path-effect="#path-effect4225"
       inkscape:original-d="m 1077.1429,-213.35208 -154.28576,20 -60,17.14286 -5.71428,2.85714"
       inkscape:connector-curvature="0" />
    <path
       style="fill:none;fill-rule:evenodd;stroke:#000000;stroke-width:31;stroke-linecap:round;stroke-linejoin:round;stroke-miterlimit:4;stroke-dasharray:none;stroke-opacity:1"
       d="M 977.14286,69.505062 C 958.42748,74.778619 939.30403,78.603308 920,80.933633 891.47531,84.377048 862.28563,84.520043 834.28571,78.07649 822.52827,75.370778 811.03879,71.516546 800,66.647919 795.29185,64.571404 790.61538,62.279328 786.64208,59.009554 782.02845,55.212829 778.49733,50.175837 776.18996,44.664325 773.88258,39.152813 772.7758,33.176101 772.61801,27.203176 772.30243,15.257326 775.71586,3.5178781 780,-7.6377953 c 11.15732,-29.0530487 28.26285,-55.3694727 42.85714,-82.8571427 13.62086,-25.654252 25.1022,-52.444032 34.28572,-80.000002"
       id="path4227"
       inkscape:path-effect="#path-effect4229"
       inkscape:original-d="m 977.14286,69.505062 c 0,0 -37.78335,9.836797 -57.14286,11.428571 -28.49115,2.342594 -57.57633,2.191506 -85.71429,-2.857143 C 822.42829,75.948974 810.73506,72.114474 800,66.647919 785.39874,59.212599 790.99786,74.805373 786.64208,59.009554 782.22058,42.975394 772.84219,7.3758573 780,-7.6377953 793.38162,-35.706026 809.58113,-62.3766 822.85714,-90.494938 c 12.38691,-26.235242 34.28572,-80.000002 34.28572,-80.000002"
       inkscape:connector-curvature="0"
       sodipodi:nodetypes="cssssssc" />
    <path
       style="fill:none;fill-rule:evenodd;stroke:#000000;stroke-width:31;stroke-linecap:round;stroke-linejoin:round;stroke-miterlimit:4;stroke-dasharray:none;stroke-opacity:1"
       d="m 814.28571,-44.780652 c 14.25856,-2.990775 28.54511,-5.848085 42.85715,-8.571429 40.76494,-7.756891 81.73673,-14.426717 122.85714,-20"
       id="path4231"
       inkscape:path-effect="#path-effect4233"
       inkscape:original-d="m 814.28571,-44.780652 42.85715,-8.571429 122.85714,-20"
       inkscape:connector-curvature="0" />
    <path
       style="fill:none;fill-rule:evenodd;stroke:#000000;stroke-width:31;stroke-linecap:round;stroke-linejoin:round;stroke-miterlimit:4;stroke-dasharray:none;stroke-opacity:1"
       d="m 1133.3369,-95.302499 c -3.1257,-9.179381 -3.1257,-19.392051 0,-28.571431 2.5838,-7.58779 7.2065,-14.37401 12.7497,-20.16392 5.5432,-5.7899 12.0006,-10.63229 18.6788,-15.0654 19.4471,-12.90943 40.9196,-22.51106 62.8572,-30.48497 19.5667,-7.11211 39.6015,-12.97916 60,-17.14285 23.4968,-4.7961 47.8642,-7.30997 71.4285,-2.85715 8.1259,1.53552 16.1353,3.90694 23.5277,7.61387 7.3924,3.70693 14.1654,8.78411 19.3295,15.24328 7.6699,9.59331 11.5005,22.00349 11.4286,34.28571 -0.1019,17.40791 -7.6583,33.97391 -17.1429,48.57143 -10.3317,15.901295 -23.1538,30.22462 -38.1023,41.892471 -20.3383,15.874813 -44.8171,26.773837 -70.4691,29.5361 -9.1944,0.990071 -18.6298,0.973596 -27.3923,3.92941 -4.3812,1.477908 -8.5584,3.717236 -11.8896,6.923771 -3.3313,3.206535 -5.7771,7.426858 -6.4324,12.0039617 -0.2708,1.8911583 -0.2376,3.818678 0,5.714286 0.644,5.1375526 2.7851,10.0162032 5.7143,14.2857143 4.5585,6.644273 10.9747,11.853725 17.9409,15.903225 6.9662,4.0495 14.5061,7.004236 22.0591,9.811061 32.5297,12.088541 65.9747,21.745439 100,28.571429 30.1406,6.046662 60.7269,9.86996 91.4285,11.428571"
       id="path4235"
       inkscape:path-effect="#path-effect4237"
       inkscape:original-d="m 1133.3369,-95.302499 c 0,0 -4.0784,-19.965051 0,-28.571431 5.7965,-12.23195 20.4612,-27.29603 31.4285,-35.22932 20.1224,-14.55569 40.2061,-20.30123 62.8572,-30.48497 18.9712,-8.52927 39.4625,-13.84666 60,-17.14285 23.5274,-3.77607 48.2005,-8.17319 71.4285,-2.85715 15.7824,3.61203 32.411,10.4875 42.8572,22.85715 7.7727,9.20382 11.5343,22.2394 11.4286,34.28571 -0.1506,17.16864 -6.4039,35.17524 -17.1429,48.57143 -11.2395,14.020531 -23.0568,32.067181 -38.1023,41.892471 -21.2326,13.865751 -48.6024,16.693634 -70.4691,29.5361 -14.6905,8.627811 -36.7576,8.36485 -45.7143,22.8571427 -1.0014,1.620287 -0.3602,3.843893 0,5.714286 0.9699,5.036189 2.4497,10.330146 5.7143,14.2857143 10.0894,12.225021 36.1488,10.338431 40,25.714286 35.4405,141.497 66.8248,47.770036 100,28.571429 26.5829,-15.383665 91.4285,11.428571 91.4285,11.428571"
       inkscape:connector-curvature="0"
       sodipodi:nodetypes="csssssssssssssssc" />
    <path
       style="fill:none;fill-rule:evenodd;stroke:#000000;stroke-width:31;stroke-linecap:round;stroke-linejoin:round;stroke-miterlimit:4;stroke-dasharray:none;stroke-opacity:1"
       d="m 1293.3369,-203.87393 c -5.8182,19.33059 -12.4936,38.40316 -20,57.14286 -10.9367,27.3032 -23.6273,53.877122 -37.1429,80.000001 -17.4293,33.687397 -36.2356,66.64112432 -54.2857,99.999996 -10.7448,19.857751 -21.2223,39.860167 -31.4286,60"
       id="path4239"
       inkscape:path-effect="#path-effect4241"
       inkscape:original-d="m 1293.3369,-203.87393 c 0,0 -12.4084,38.44462 -20,57.14286 -11.06,27.24106 -23.9325,53.734331 -37.1429,80.000001 -17.042,33.883907 -36.4381,66.53341467 -54.2857,99.999996 -10.6242,19.921775 -31.4286,60 -31.4286,60"
       inkscape:connector-curvature="0"
       sodipodi:nodetypes="csssc" />
    <path
       style="fill:none;fill-rule:evenodd;stroke:#000000;stroke-width:31;stroke-linecap:round;stroke-linejoin:round;stroke-miterlimit:4;stroke-dasharray:none;stroke-opacity:1"
       d="m 1599.0511,-246.73107 c -9.3591,20.55684 -14.2657,43.12723 -14.2857,65.71428 -0.022,25.10983 5.8843,49.79562 11.4286,74.28572 3.1452,13.893167 6.3382,28.178396 14.2857,40.000001 6.1703,9.178117 15.2081,16.546037 25.7143,19.999996 13.8588,4.556139 29.1404,2.110472 42.8571,-2.857143 15.2573,-5.525566 29.2487,-14.018158 42.8572,-22.857143 21.7379,-14.119222 42.8131,-29.278781 62.8571,-45.714291 24.5054,-20.09368 47.4537,-42.08578 68.5715,-65.71428"
       id="path4243"
       inkscape:path-effect="#path-effect4245"
       inkscape:original-d="m 1599.0511,-246.73107 c 0,0 -13.5975,43.30846 -14.2857,65.71428 -0.7691,25.04143 13.0681,49.2862 11.4286,74.28572 -14.3181,218.32414 5.513,33.968209 14.2857,40.000001 8.9479,6.152222 15.3317,16.819668 25.7143,19.999996 13.6896,4.19328 29.0904,1.075641 42.8571,-2.857143 15.5677,-4.447293 29.1344,-14.265533 42.8572,-22.857143 21.9589,-13.74805 42.983,-29.094431 62.8571,-45.714291 24.2859,-20.30921 68.5715,-65.71428 68.5715,-65.71428"
       inkscape:connector-curvature="0"
       sodipodi:nodetypes="csssssssc" />
    <path
       style="fill:none;fill-rule:evenodd;stroke:#000000;stroke-width:31;stroke-linecap:round;stroke-linejoin:round;stroke-miterlimit:4;stroke-dasharray:none;stroke-opacity:1"
       d="m 1639.0511,-43.87393 c -8.5468,21.91436 -17.1183,43.81914036 -25.7142,65.714286 -14.2186,36.216919 -28.5044,72.407476 -42.8572,108.571424"
       id="path4247"
       inkscape:path-effect="#path-effect4249"
       inkscape:original-d="m 1639.0511,-43.87393 c 0,0 -17.1102,43.82229667 -25.7142,65.714286 -14.2319,36.211684 -42.8572,108.571424 -42.8572,108.571424"
       inkscape:connector-curvature="0"
       sodipodi:nodetypes="csc" />
  </g>
</svg>
